<svg version="1.1" xmlns="http://www.w3.org/2000/svg" xmlns:xlink="http://www.w3.org/1999/xlink" width="220" height="220"><style xmlns="http://www.w3.org/1999/xhtml"></style><defs/><g transform="translate(0,0)"><g><rect fill="#FFFFFF" stroke="none" x="0" y="0" width="220" height="220"/></g><g transform="translate(0,0) matrix(1,0,0,1,0,0)"><g><g transform="translate(0,0) scale(2,2)"><g><path fill="#FFFFFF" stroke="none" d="M 0 0 L 100 0 Q 100 0 100 0 L 100 100 Q 100 100 100 100 L 0 100 Q 0 100 0 100 L 0 0 Q 0 0 0 0 Z"/><g transform="scale(0.5,0.5)"><path fill="none" stroke="none" d="M 0 0 L 200 0 Q 200 0 200 0 L 200 200 Q 200 200 200 200 L 0 200 Q 0 200 0 200 L 0 0 Q 0 0 0 0 Z"/><path fill="none" stroke="#000000" d="M 0 0 M 0 0 L 200 0 Q 200 0 200 0 L 200 200 Q 200 200 200 200 L 0 200 Q 0 200 0 200 L 0 0 Q 0 0 0 0 Z" stroke-miterlimit="10" stroke-width="2"/></g></g></g></g></g><g transform="translate(0,0) matrix(1,0,0,1,26,12)"><g><g transform="translate(0,0) scale(0.1,0.1)"><g><path fill="#000000" stroke="none" d="M 100 50 A 50 50 0 1 0 99.99997500000208 50.04999999166668 Z"/><g transform="scale(10,10)"><path fill="none" stroke="rgb(0,0,0)" d="M 5 0 M 5 0 C 7.761423499999999 0 10 2.2385765 10 5 C 10 7.761423499999999 7.761423499999999 10 5 10 C 2.2385765 10 0 7.761423499999999 0 5 C 0 2.2385765 2.2385765 0 5 0 Z" stroke-opacity="0" stroke-miterlimit="10" stroke-width="0"/></g></g></g></g></g><g transform="translate(0,0) matrix(1,0,0,1,60,30)"><g><g transform="translate(0,0) scale(0.1,0.1)"><g><path fill="#000000" stroke="none" d="M 100 50 A 50 50 0 1 0 99.99997500000208 50.04999999166668 Z"/><g transform="scale(10,10)"><path fill="none" stroke="rgb(0,0,0)" d="M 5 0 M 5 0 C 7.761423499999999 0 10 2.2385765 10 5 C 10 7.761423499999999 7.761423499999999 10 5 10 C 2.2385765 10 0 7.761423499999999 0 5 C 0 2.2385765 2.2385765 0 5 0 Z" stroke-opacity="0" stroke-miterlimit="10" stroke-width="0"/></g></g></g></g></g><g transform="translate(0,0) matrix(1,0,0,1,120,25)"><g><g transform="translate(0,0) scale(0.1,0.1)"><g><path fill="#000000" stroke="none" d="M 100 50 A 50 50 0 1 0 99.99997500000208 50.04999999166668 Z"/><g transform="scale(10,10)"><path fill="none" stroke="rgb(0,0,0)" d="M 5 0 M 5 0 C 7.761423499999999 0 10 2.2385765 10 5 C 10 7.761423499999999 7.761423499999999 10 5 10 C 2.2385765 10 0 7.761423499999999 0 5 C 0 2.2385765 2.2385765 0 5 0 Z" stroke-opacity="0" stroke-miterlimit="10" stroke-width="0"/></g></g></g></g></g><g transform="translate(0,0) matrix(1,0,0,1,163,10)"><g><g transform="translate(0,0) scale(0.1,0.1)"><g><path fill="#000000" stroke="none" d="M 100 50 A 50 50 0 1 0 99.99997500000208 50.04999999166668 Z"/><g transform="scale(10,10)"><path fill="none" stroke="rgb(0,0,0)" d="M 5 0 M 5 0 C 7.761423499999999 0 10 2.2385765 10 5 C 10 7.761423499999999 7.761423499999999 10 5 10 C 2.2385765 10 0 7.761423499999999 0 5 C 0 2.2385765 2.2385765 0 5 0 Z" stroke-opacity="0" stroke-miterlimit="10" stroke-width="0"/></g></g></g></g></g><g transform="translate(0,0) matrix(1,0,0,1,179,66)"><g><g transform="translate(0,0) scale(0.1,0.1)"><g><path fill="#000000" stroke="none" d="M 100 50 A 50 50 0 1 0 99.99997500000208 50.04999999166668 Z"/><g transform="scale(10,10)"><path fill="none" stroke="rgb(0,0,0)" d="M 5 0 M 5 0 C 7.761423499999999 0 10 2.2385765 10 5 C 10 7.761423499999999 7.761423499999999 10 5 10 C 2.2385765 10 0 7.761423499999999 0 5 C 0 2.2385765 2.2385765 0 5 0 Z" stroke-opacity="0" stroke-miterlimit="10" stroke-width="0"/></g></g></g></g></g><g transform="translate(0,0) matrix(1,0,0,1,177,121)"><g><g transform="translate(0,0) scale(0.1,0.1)"><g><path fill="#000000" stroke="none" d="M 100 50 A 50 50 0 1 0 99.99997500000208 50.04999999166668 Z"/><g transform="scale(10,10)"><path fill="none" stroke="rgb(0,0,0)" d="M 5 0 M 5 0 C 7.761423499999999 0 10 2.2385765 10 5 C 10 7.761423499999999 7.761423499999999 10 5 10 C 2.2385765 10 0 7.761423499999999 0 5 C 0 2.2385765 2.2385765 0 5 0 Z" stroke-opacity="0" stroke-miterlimit="10" stroke-width="0"/></g></g></g></g></g><g transform="translate(0,0) matrix(1,0,0,1,163,170)"><g><g transform="translate(0,0) scale(0.1,0.1)"><g><path fill="#000000" stroke="none" d="M 100 50 A 50 50 0 1 0 99.99997500000208 50.04999999166668 Z"/><g transform="scale(10,10)"><path fill="none" stroke="rgb(0,0,0)" d="M 5 0 M 5 0 C 7.761423499999999 0 10 2.2385765 10 5 C 10 7.761423499999999 7.761423499999999 10 5 10 C 2.2385765 10 0 7.761423499999999 0 5 C 0 2.2385765 2.2385765 0 5 0 Z" stroke-opacity="0" stroke-miterlimit="10" stroke-width="0"/></g></g></g></g></g><g transform="translate(0,0) matrix(1,0,0,1,130,170)"><g><g transform="translate(0,0) scale(0.1,0.1)"><g><path fill="#000000" stroke="none" d="M 100 50 A 50 50 0 1 0 99.99997500000208 50.04999999166668 Z"/><g transform="scale(10,10)"><path fill="none" stroke="rgb(0,0,0)" d="M 5 0 M 5 0 C 7.761423499999999 0 10 2.2385765 10 5 C 10 7.761423499999999 7.761423499999999 10 5 10 C 2.2385765 10 0 7.761423499999999 0 5 C 0 2.2385765 2.2385765 0 5 0 Z" stroke-opacity="0" stroke-miterlimit="10" stroke-width="0"/></g></g></g></g></g><g transform="translate(0,0) matrix(1,0,0,1,60,90)"><g><g transform="translate(0,0) scale(0.1,0.1)"><g><path fill="#000000" stroke="none" d="M 100 50 A 50 50 0 1 0 99.99997500000208 50.04999999166668 Z"/><g transform="scale(10,10)"><path fill="none" stroke="rgb(0,0,0)" d="M 5 0 M 5 0 C 7.761423499999999 0 10 2.2385765 10 5 C 10 7.761423499999999 7.761423499999999 10 5 10 C 2.2385765 10 0 7.761423499999999 0 5 C 0 2.2385765 2.2385765 0 5 0 Z" stroke-opacity="0" stroke-miterlimit="10" stroke-width="0"/></g></g></g></g></g><g transform="translate(0,0) matrix(1,0,0,1,90,40)"><g><g transform="translate(0,0) scale(0.1,0.1)"><g><path fill="#000000" stroke="none" d="M 100 50 A 50 50 0 1 0 99.99997500000208 50.04999999166668 Z"/><g transform="scale(10,10)"><path fill="none" stroke="rgb(0,0,0)" d="M 5 0 M 5 0 C 7.761423499999999 0 10 2.2385765 10 5 C 10 7.761423499999999 7.761423499999999 10 5 10 C 2.2385765 10 0 7.761423499999999 0 5 C 0 2.2385765 2.2385765 0 5 0 Z" stroke-opacity="0" stroke-miterlimit="10" stroke-width="0"/></g></g></g></g></g><g transform="translate(0,0) matrix(1,0,0,1,50,60)"><g><g transform="translate(0,0) scale(0.1,0.1)"><g><path fill="#000000" stroke="none" d="M 100 50 A 50 50 0 1 0 99.99997500000208 50.04999999166668 Z"/><g transform="scale(10,10)"><path fill="none" stroke="rgb(0,0,0)" d="M 5 0 M 5 0 C 7.761423499999999 0 10 2.2385765 10 5 C 10 7.761423499999999 7.761423499999999 10 5 10 C 2.2385765 10 0 7.761423499999999 0 5 C 0 2.2385765 2.2385765 0 5 0 Z" stroke-opacity="0" stroke-miterlimit="10" stroke-width="0"/></g></g></g></g></g><g transform="translate(0,0) matrix(1,0,0,1,71,119)"><g><g transform="translate(0,0) scale(0.1,0.1)"><g><path fill="#000000" stroke="none" d="M 100 50 A 50 50 0 1 0 99.99997500000208 50.04999999166668 Z"/><g transform="scale(10,10)"><path fill="none" stroke="rgb(0,0,0)" d="M 5 0 M 5 0 C 7.761423499999999 0 10 2.2385765 10 5 C 10 7.761423499999999 7.761423499999999 10 5 10 C 2.2385765 10 0 7.761423499999999 0 5 C 0 2.2385765 2.2385765 0 5 0 Z" stroke-opacity="0" stroke-miterlimit="10" stroke-width="0"/></g></g></g></g></g><g transform="translate(0,0) matrix(1,0,0,1,40,144)"><g><g transform="translate(0,0) scale(0.1,0.1)"><g><path fill="#000000" stroke="none" d="M 100 50 A 50 50 0 1 0 99.99997500000208 50.04999999166668 Z"/><g transform="scale(10,10)"><path fill="none" stroke="rgb(0,0,0)" d="M 5 0 M 5 0 C 7.761423499999999 0 10 2.2385765 10 5 C 10 7.761423499999999 7.761423499999999 10 5 10 C 2.2385765 10 0 7.761423499999999 0 5 C 0 2.2385765 2.2385765 0 5 0 Z" stroke-opacity="0" stroke-miterlimit="10" stroke-width="0"/></g></g></g></g></g><g transform="translate(0,0) matrix(1,0,0,1,29,184)"><g><g transform="translate(0,0) scale(0.1,0.1)"><g><path fill="#000000" stroke="none" d="M 100 50 A 50 50 0 1 0 99.99997500000208 50.04999999166668 Z"/><g transform="scale(10,10)"><path fill="none" stroke="rgb(0,0,0)" d="M 5 0 M 5 0 C 7.761423499999999 0 10 2.2385765 10 5 C 10 7.761423499999999 7.761423499999999 10 5 10 C 2.2385765 10 0 7.761423499999999 0 5 C 0 2.2385765 2.2385765 0 5 0 Z" stroke-opacity="0" stroke-miterlimit="10" stroke-width="0"/></g></g></g></g></g><g transform="translate(0,0) matrix(1,0,0,1,28,113)"><g><g transform="translate(0,0) scale(0.1,0.1)"><g><path fill="#000000" stroke="none" d="M 100 50 A 50 50 0 1 0 99.99997500000208 50.04999999166668 Z"/><g transform="scale(10,10)"><path fill="none" stroke="rgb(0,0,0)" d="M 5 0 M 5 0 C 7.761423499999999 0 10 2.2385765 10 5 C 10 7.761423499999999 7.761423499999999 10 5 10 C 2.2385765 10 0 7.761423499999999 0 5 C 0 2.2385765 2.2385765 0 5 0 Z" stroke-opacity="0" stroke-miterlimit="10" stroke-width="0"/></g></g></g></g></g><g transform="translate(0,0) matrix(1,0,0,1,20,70)"><g><g transform="translate(0,0) scale(0.1,0.1)"><g><path fill="#000000" stroke="none" d="M 100 50 A 50 50 0 1 0 99.99997500000208 50.04999999166668 Z"/><g transform="scale(10,10)"><path fill="none" stroke="rgb(0,0,0)" d="M 5 0 M 5 0 C 7.761423499999999 0 10 2.2385765 10 5 C 10 7.761423499999999 7.761423499999999 10 5 10 C 2.2385765 10 0 7.761423499999999 0 5 C 0 2.2385765 2.2385765 0 5 0 Z" stroke-opacity="0" stroke-miterlimit="10" stroke-width="0"/></g></g></g></g></g></g></svg>