<svg version="1.1" xmlns="http://www.w3.org/2000/svg" xmlns:xlink="http://www.w3.org/1999/xlink" width="224.5" height="224.5"><style xmlns="http://www.w3.org/1999/xhtml"></style><defs/><g transform="translate(0,0)"><g><rect fill="#FFFFFF" stroke="none" x="0" y="0" width="224.5" height="224.5"/></g><g transform="translate(0,0) matrix(1,0,0,1,0,0)"><g><g transform="translate(0,0) scale(1,1)"><g><path fill="#FFFFFF" stroke="none" d="M 0 0 L 100 0 Q 100 0 100 0 L 100 100 Q 100 100 100 100 L 0 100 Q 0 100 0 100 L 0 0 Q 0 0 0 0 Z"/><g transform="scale(1,1)"><path fill="none" stroke="none" d="M 0 0 L 100 0 Q 100 0 100 0 L 100 100 Q 100 100 100 100 L 0 100 Q 0 100 0 100 L 0 0 Q 0 0 0 0 Z"/><path fill="none" stroke="#333333" d="M 0 0 M 0 0 L 100 0 Q 100 0 100 0 L 100 100 Q 100 100 100 100 L 0 100 Q 0 100 0 100 L 0 0 Q 0 0 0 0 Z" stroke-miterlimit="10" stroke-width="2"/></g></g></g></g></g><g transform="matrix(1,0,0,1,-4.5,45.5)"><g transform="translate(0,0)"><g transform="translate(-4,-130) translate(8.5,84.5) matrix(1,0,0,1,0,0)"><g><path fill="none" stroke="#000000" d="M 0 50 L 100 50" stroke-miterlimit="10" stroke-width="2"/></g></g></g></g><g transform="matrix(1,0,0,1,45.5,-4.5)"><g transform="translate(0,0)"><g transform="translate(-126,-256) translate(80.5,260.5) matrix(1,0,0,1,0,0)"><g><path fill="none" stroke="#000000" d="M 50 100 L 50 0" stroke-miterlimit="10" stroke-width="2"/></g></g></g></g><g transform="translate(0,0) matrix(1,0,0,1,100,0)"><g><g transform="translate(0,0) scale(1,1)"><g><path fill="#FFFFFF" stroke="none" d="M 0 0 L 100 0 Q 100 0 100 0 L 100 100 Q 100 100 100 100 L 0 100 Q 0 100 0 100 L 0 0 Q 0 0 0 0 Z"/><g transform="scale(1,1)"><path fill="none" stroke="none" d="M 0 0 L 100 0 Q 100 0 100 0 L 100 100 Q 100 100 100 100 L 0 100 Q 0 100 0 100 L 0 0 Q 0 0 0 0 Z"/><path fill="none" stroke="#333333" d="M 0 0 M 0 0 L 100 0 Q 100 0 100 0 L 100 100 Q 100 100 100 100 L 0 100 Q 0 100 0 100 L 0 0 Q 0 0 0 0 Z" stroke-miterlimit="10" stroke-width="2"/></g></g></g></g></g><g transform="matrix(1,0,0,1,95.5,45.5)"><g transform="translate(0,0)"><g transform="translate(-108.5,-134.5) translate(13,89) matrix(1,0,0,1,0,0)"><g><path fill="none" stroke="#000000" d="M 100 50 L 200 50" stroke-miterlimit="10" stroke-width="2"/></g></g></g></g><g transform="matrix(1,0,0,1,145.5,-4.5)"><g transform="translate(0,0)"><g transform="translate(-230.5,-260.5) translate(85,265) matrix(1,0,0,1,0,0)"><g><path fill="none" stroke="#000000" d="M 150 100 L 150 0" stroke-miterlimit="10" stroke-width="2"/></g></g></g></g><g transform="translate(0,0) matrix(1,0,0,1,0,100)"><g><g transform="translate(0,0) scale(1,1)"><g><path fill="#FFFFFF" stroke="none" d="M 0 0 L 100 0 Q 100 0 100 0 L 100 100 Q 100 100 100 100 L 0 100 Q 0 100 0 100 L 0 0 Q 0 0 0 0 Z"/><g transform="scale(1,1)"><path fill="none" stroke="none" d="M 0 0 L 100 0 Q 100 0 100 0 L 100 100 Q 100 100 100 100 L 0 100 Q 0 100 0 100 L 0 0 Q 0 0 0 0 Z"/><path fill="none" stroke="#333333" d="M 0 0 M 0 0 L 100 0 Q 100 0 100 0 L 100 100 Q 100 100 100 100 L 0 100 Q 0 100 0 100 L 0 0 Q 0 0 0 0 Z" stroke-miterlimit="10" stroke-width="2"/></g></g></g></g></g><g transform="matrix(1,0,0,1,-4.5,145.5)"><g transform="translate(0,0)"><g transform="translate(-8.5,-234.5) translate(13,89) matrix(1,0,0,1,0,0)"><g><path fill="none" stroke="#000000" d="M 0 150 L 100 150" stroke-miterlimit="10" stroke-width="2"/></g></g></g></g><g transform="matrix(1,0,0,1,45.5,95.5)"><g transform="translate(0,0)"><g transform="translate(-130.5,-360.5) translate(85,265) matrix(1,0,0,1,0,0)"><g><path fill="none" stroke="#000000" d="M 50 200 L 50 100" stroke-miterlimit="10" stroke-width="2"/></g></g></g></g><g transform="translate(0,0) matrix(1,0,0,1,100,100)"><g><g transform="translate(0,0) scale(1,1)"><g><path fill="#FFFFFF" stroke="none" d="M 0 0 L 100 0 Q 100 0 100 0 L 100 100 Q 100 100 100 100 L 0 100 Q 0 100 0 100 L 0 0 Q 0 0 0 0 Z"/><g transform="scale(1,1)"><path fill="none" stroke="none" d="M 0 0 L 100 0 Q 100 0 100 0 L 100 100 Q 100 100 100 100 L 0 100 Q 0 100 0 100 L 0 0 Q 0 0 0 0 Z"/><path fill="none" stroke="#333333" d="M 0 0 M 0 0 L 100 0 Q 100 0 100 0 L 100 100 Q 100 100 100 100 L 0 100 Q 0 100 0 100 L 0 0 Q 0 0 0 0 Z" stroke-miterlimit="10" stroke-width="2"/></g></g></g></g></g><g transform="matrix(1,0,0,1,95.5,145.5)"><g transform="translate(0,0)"><g transform="translate(-113,-239) translate(17.5,93.5) matrix(1,0,0,1,0,0)"><g><path fill="none" stroke="#000000" d="M 100 150 L 200 150" stroke-miterlimit="10" stroke-width="2"/></g></g></g></g><g transform="matrix(1,0,0,1,145.5,95.5)"><g transform="translate(0,0)"><g transform="translate(-235,-365) translate(89.5,269.5) matrix(1,0,0,1,0,0)"><g><path fill="none" stroke="#000000" d="M 150 200 L 150 100" stroke-miterlimit="10" stroke-width="2"/></g></g></g></g><g transform="translate(0,0) matrix(1,0,0,1,20,20)"><g><g transform="translate(0,0) scale(0.1,0.1)"><g><path fill="#000000" stroke="none" d="M 100 50 A 50 50 0 1 0 99.99997500000208 50.04999999166668 Z"/><g transform="scale(10,10)"><path fill="none" stroke="rgb(0,0,0)" d="M 5 0 M 5 0 C 7.761423499999999 0 10 2.2385765 10 5 C 10 7.761423499999999 7.761423499999999 10 5 10 C 2.2385765 10 0 7.761423499999999 0 5 C 0 2.2385765 2.2385765 0 5 0 Z" stroke-opacity="0" stroke-miterlimit="10" stroke-width="0"/></g></g></g></g></g><g transform="translate(0,0) matrix(1,0,0,1,70,20)"><g><g transform="translate(0,0) scale(0.1,0.1)"><g><path fill="#000000" stroke="none" d="M 100 50 A 50 50 0 1 0 99.99997500000208 50.04999999166668 Z"/><g transform="scale(10,10)"><path fill="none" stroke="rgb(0,0,0)" d="M 5 0 M 5 0 C 7.761423499999999 0 10 2.2385765 10 5 C 10 7.761423499999999 7.761423499999999 10 5 10 C 2.2385765 10 0 7.761423499999999 0 5 C 0 2.2385765 2.2385765 0 5 0 Z" stroke-opacity="0" stroke-miterlimit="10" stroke-width="0"/></g></g></g></g></g><g transform="translate(0,0) matrix(1,0,0,1,120,20)"><g><g transform="translate(0,0) scale(0.1,0.1)"><g><path fill="#000000" stroke="none" d="M 100 50 A 50 50 0 1 0 99.99997500000208 50.04999999166668 Z"/><g transform="scale(10,10)"><path fill="none" stroke="rgb(0,0,0)" d="M 5 0 M 5 0 C 7.761423499999999 0 10 2.2385765 10 5 C 10 7.761423499999999 7.761423499999999 10 5 10 C 2.2385765 10 0 7.761423499999999 0 5 C 0 2.2385765 2.2385765 0 5 0 Z" stroke-opacity="0" stroke-miterlimit="10" stroke-width="0"/></g></g></g></g></g><g transform="translate(0,0) matrix(1,0,0,1,170,20)"><g><g transform="translate(0,0) scale(0.1,0.1)"><g><path fill="#000000" stroke="none" d="M 100 50 A 50 50 0 1 0 99.99997500000208 50.04999999166668 Z"/><g transform="scale(10,10)"><path fill="none" stroke="rgb(0,0,0)" d="M 5 0 M 5 0 C 7.761423499999999 0 10 2.2385765 10 5 C 10 7.761423499999999 7.761423499999999 10 5 10 C 2.2385765 10 0 7.761423499999999 0 5 C 0 2.2385765 2.2385765 0 5 0 Z" stroke-opacity="0" stroke-miterlimit="10" stroke-width="0"/></g></g></g></g></g><g transform="translate(0,0) matrix(1,0,0,1,170,70)"><g><g transform="translate(0,0) scale(0.1,0.1)"><g><path fill="#000000" stroke="none" d="M 100 50 A 50 50 0 1 0 99.99997500000208 50.04999999166668 Z"/><g transform="scale(10,10)"><path fill="none" stroke="rgb(0,0,0)" d="M 5 0 M 5 0 C 7.761423499999999 0 10 2.2385765 10 5 C 10 7.761423499999999 7.761423499999999 10 5 10 C 2.2385765 10 0 7.761423499999999 0 5 C 0 2.2385765 2.2385765 0 5 0 Z" stroke-opacity="0" stroke-miterlimit="10" stroke-width="0"/></g></g></g></g></g><g transform="translate(0,0) matrix(1,0,0,1,170,120)"><g><g transform="translate(0,0) scale(0.1,0.1)"><g><path fill="#000000" stroke="none" d="M 100 50 A 50 50 0 1 0 99.99997500000208 50.04999999166668 Z"/><g transform="scale(10,10)"><path fill="none" stroke="rgb(0,0,0)" d="M 5 0 M 5 0 C 7.761423499999999 0 10 2.2385765 10 5 C 10 7.761423499999999 7.761423499999999 10 5 10 C 2.2385765 10 0 7.761423499999999 0 5 C 0 2.2385765 2.2385765 0 5 0 Z" stroke-opacity="0" stroke-miterlimit="10" stroke-width="0"/></g></g></g></g></g><g transform="translate(0,0) matrix(1,0,0,1,170,170)"><g><g transform="translate(0,0) scale(0.1,0.1)"><g><path fill="#000000" stroke="none" d="M 100 50 A 50 50 0 1 0 99.99997500000208 50.04999999166668 Z"/><g transform="scale(10,10)"><path fill="none" stroke="rgb(0,0,0)" d="M 5 0 M 5 0 C 7.761423499999999 0 10 2.2385765 10 5 C 10 7.761423499999999 7.761423499999999 10 5 10 C 2.2385765 10 0 7.761423499999999 0 5 C 0 2.2385765 2.2385765 0 5 0 Z" stroke-opacity="0" stroke-miterlimit="10" stroke-width="0"/></g></g></g></g></g><g transform="translate(0,0) matrix(1,0,0,1,120,170)"><g><g transform="translate(0,0) scale(0.1,0.1)"><g><path fill="#000000" stroke="none" d="M 100 50 A 50 50 0 1 0 99.99997500000208 50.04999999166668 Z"/><g transform="scale(10,10)"><path fill="none" stroke="rgb(0,0,0)" d="M 5 0 M 5 0 C 7.761423499999999 0 10 2.2385765 10 5 C 10 7.761423499999999 7.761423499999999 10 5 10 C 2.2385765 10 0 7.761423499999999 0 5 C 0 2.2385765 2.2385765 0 5 0 Z" stroke-opacity="0" stroke-miterlimit="10" stroke-width="0"/></g></g></g></g></g><g transform="translate(0,0) matrix(1,0,0,1,120,120)"><g><g transform="translate(0,0) scale(0.1,0.1)"><g><path fill="#000000" stroke="none" d="M 100 50 A 50 50 0 1 0 99.99997500000208 50.04999999166668 Z"/><g transform="scale(10,10)"><path fill="none" stroke="rgb(0,0,0)" d="M 5 0 M 5 0 C 7.761423499999999 0 10 2.2385765 10 5 C 10 7.761423499999999 7.761423499999999 10 5 10 C 2.2385765 10 0 7.761423499999999 0 5 C 0 2.2385765 2.2385765 0 5 0 Z" stroke-opacity="0" stroke-miterlimit="10" stroke-width="0"/></g></g></g></g></g><g transform="translate(0,0) matrix(1,0,0,1,120,70)"><g><g transform="translate(0,0) scale(0.1,0.1)"><g><path fill="#000000" stroke="none" d="M 100 50 A 50 50 0 1 0 99.99997500000208 50.04999999166668 Z"/><g transform="scale(10,10)"><path fill="none" stroke="rgb(0,0,0)" d="M 5 0 M 5 0 C 7.761423499999999 0 10 2.2385765 10 5 C 10 7.761423499999999 7.761423499999999 10 5 10 C 2.2385765 10 0 7.761423499999999 0 5 C 0 2.2385765 2.2385765 0 5 0 Z" stroke-opacity="0" stroke-miterlimit="10" stroke-width="0"/></g></g></g></g></g><g transform="translate(0,0) matrix(1,0,0,1,70,70)"><g><g transform="translate(0,0) scale(0.1,0.1)"><g><path fill="#000000" stroke="none" d="M 100 50 A 50 50 0 1 0 99.99997500000208 50.04999999166668 Z"/><g transform="scale(10,10)"><path fill="none" stroke="rgb(0,0,0)" d="M 5 0 M 5 0 C 7.761423499999999 0 10 2.2385765 10 5 C 10 7.761423499999999 7.761423499999999 10 5 10 C 2.2385765 10 0 7.761423499999999 0 5 C 0 2.2385765 2.2385765 0 5 0 Z" stroke-opacity="0" stroke-miterlimit="10" stroke-width="0"/></g></g></g></g></g><g transform="translate(0,0) matrix(1,0,0,1,70,120)"><g><g transform="translate(0,0) scale(0.1,0.1)"><g><path fill="#000000" stroke="none" d="M 100 50 A 50 50 0 1 0 99.99997500000208 50.04999999166668 Z"/><g transform="scale(10,10)"><path fill="none" stroke="rgb(0,0,0)" d="M 5 0 M 5 0 C 7.761423499999999 0 10 2.2385765 10 5 C 10 7.761423499999999 7.761423499999999 10 5 10 C 2.2385765 10 0 7.761423499999999 0 5 C 0 2.2385765 2.2385765 0 5 0 Z" stroke-opacity="0" stroke-miterlimit="10" stroke-width="0"/></g></g></g></g></g><g transform="translate(0,0) matrix(1,0,0,1,70,170)"><g><g transform="translate(0,0) scale(0.1,0.1)"><g><path fill="#000000" stroke="none" d="M 100 50 A 50 50 0 1 0 99.99997500000208 50.04999999166668 Z"/><g transform="scale(10,10)"><path fill="none" stroke="rgb(0,0,0)" d="M 5 0 M 5 0 C 7.761423499999999 0 10 2.2385765 10 5 C 10 7.761423499999999 7.761423499999999 10 5 10 C 2.2385765 10 0 7.761423499999999 0 5 C 0 2.2385765 2.2385765 0 5 0 Z" stroke-opacity="0" stroke-miterlimit="10" stroke-width="0"/></g></g></g></g></g><g transform="translate(0,0) matrix(1,0,0,1,20,170)"><g><g transform="translate(0,0) scale(0.1,0.1)"><g><path fill="#000000" stroke="none" d="M 100 50 A 50 50 0 1 0 99.99997500000208 50.04999999166668 Z"/><g transform="scale(10,10)"><path fill="none" stroke="rgb(0,0,0)" d="M 5 0 M 5 0 C 7.761423499999999 0 10 2.2385765 10 5 C 10 7.761423499999999 7.761423499999999 10 5 10 C 2.2385765 10 0 7.761423499999999 0 5 C 0 2.2385765 2.2385765 0 5 0 Z" stroke-opacity="0" stroke-miterlimit="10" stroke-width="0"/></g></g></g></g></g><g transform="translate(0,0) matrix(1,0,0,1,20,120)"><g><g transform="translate(0,0) scale(0.1,0.1)"><g><path fill="#000000" stroke="none" d="M 100 50 A 50 50 0 1 0 99.99997500000208 50.04999999166668 Z"/><g transform="scale(10,10)"><path fill="none" stroke="rgb(0,0,0)" d="M 5 0 M 5 0 C 7.761423499999999 0 10 2.2385765 10 5 C 10 7.761423499999999 7.761423499999999 10 5 10 C 2.2385765 10 0 7.761423499999999 0 5 C 0 2.2385765 2.2385765 0 5 0 Z" stroke-opacity="0" stroke-miterlimit="10" stroke-width="0"/></g></g></g></g></g><g transform="translate(0,0) matrix(1,0,0,1,20,70)"><g><g transform="translate(0,0) scale(0.1,0.1)"><g><path fill="#000000" stroke="none" d="M 100 50 A 50 50 0 1 0 99.99997500000208 50.04999999166668 Z"/><g transform="scale(10,10)"><path fill="none" stroke="rgb(0,0,0)" d="M 5 0 M 5 0 C 7.761423499999999 0 10 2.2385765 10 5 C 10 7.761423499999999 7.761423499999999 10 5 10 C 2.2385765 10 0 7.761423499999999 0 5 C 0 2.2385765 2.2385765 0 5 0 Z" stroke-opacity="0" stroke-miterlimit="10" stroke-width="0"/></g></g></g></g></g></g></svg>